HIERARCHY
ROOT Hips
{
	OFFSET 0.000000 0.000000 0.000000
	CHANNELS 6 Xposition Yposition Zposition Zrotation Yrotation Xrotation 
	JOINT LowerBack
	{
		OFFSET 0.000000 0.000000 0.000000
		CHANNELS 3 Zrotation Yrotation Xrotation
		JOINT Spine
		{
			OFFSET 0.028270 2.035590 -0.193380
			CHANNELS 3 Zrotation Yrotation Xrotation
			JOINT Spine1
			{
				OFFSET 0.056720 2.048850 -0.042750
				CHANNELS 3 Zrotation Yrotation Xrotation
				JOINT Neck
				{
					OFFSET 0.000000 0.000000 0.000000
					CHANNELS 3 Zrotation Yrotation Xrotation
					JOINT Neck1
					{
						OFFSET -0.054170 1.746240 0.172020
						CHANNELS 3 Zrotation Yrotation Xrotation
						JOINT Head
						{
							OFFSET 0.104070 1.761360 -0.123970
							CHANNELS 3 Zrotation Yrotation Xrotation
							End Site
							{
								OFFSET 0.000000 0.000000 0.000000
							}
						}
					}
				}
				JOINT LeftShoulder
				{
					OFFSET 0.000000 0.000000 0.000000
					CHANNELS 3 Zrotation Yrotation Xrotation
					JOINT LeftArm
					{
						OFFSET 3.362410 1.200890 -0.311210
						CHANNELS 3 Zrotation Yrotation Xrotation
						JOINT LeftForeArm
						{
							OFFSET 4.983000 -0.000000 -0.000000
							CHANNELS 3 Zrotation Yrotation Xrotation
							JOINT LeftHand
							{
								OFFSET 3.483560 -0.000000 -0.000000
								CHANNELS 3 Zrotation Yrotation Xrotation
								JOINT LeftFingerBase
								{
									OFFSET 0.000000 0.000000 0.000000
									CHANNELS 3 Zrotation Yrotation Xrotation
									JOINT LeftHandIndex1
									{
										OFFSET 0.715260 -0.000000 -0.000000
										CHANNELS 3 Zrotation Yrotation Xrotation
										End Site
										{
											OFFSET 0.000000 0.000000 0.000000
										}
									}
								}
								JOINT LThumb
								{
									OFFSET 0.000000 0.000000 0.000000
									CHANNELS 3 Zrotation Yrotation Xrotation
									End Site
									{
										OFFSET 0.000000 0.000000 0.000000
									}
								}
							}
						}
					}
				}
				JOINT RightShoulder
				{
					OFFSET 0.000000 0.000000 0.000000
					CHANNELS 3 Zrotation Yrotation Xrotation
					JOINT RightArm
					{
						OFFSET -3.136600 1.374050 -0.404650
						CHANNELS 3 Zrotation Yrotation Xrotation
						JOINT RightForeArm
						{
							OFFSET -5.241900 -0.000000 -0.000000
							CHANNELS 3 Zrotation Yrotation Xrotation
							JOINT RightHand
							{
								OFFSET -3.444170 -0.000000 -0.000000
								CHANNELS 3 Zrotation Yrotation Xrotation
								JOINT RightFingerBase
								{
									OFFSET 0.000000 0.000000 0.000000
									CHANNELS 3 Zrotation Yrotation Xrotation
									JOINT RightHandIndex1
									{
										OFFSET -0.622530 -0.000000 -0.000000
										CHANNELS 3 Zrotation Yrotation Xrotation
										End Site
										{
											OFFSET 0.000000 0.000000 0.000000
										}
									}
								}
								JOINT RThumb
								{
									OFFSET 0.000000 0.000000 0.000000
									CHANNELS 3 Zrotation Yrotation Xrotation
									End Site
									{
										OFFSET 0.000000 0.000000 0.000000
									}
								}
							}
						}
					}
				}
			}
		}
	}
}
}
MOTION
Frames: 12
Frame Time: 0.008333
2.134503 16.275405 0.009454 65.096649 84.251556 116.814939 6.326793 -0.004533 6.752376 1.228859 0.030313 -1.137835 -2.813501 -0.043212 -0.018188 6.633340 -8.223475 -5.788962 -1.158740 -0.072263 -0.223735 0.000000 0.000000 0.000000 4.953011 9.219456 2.037878 -74.162748 21.176351 26.474112 -0.399893 -74.939296 0.016469 -4.066503 3.864347 -0.134085 0.077933 0.155265 0.000000 0.000000 0.000000 0.000000 0.000000 0.000000 0.000000 4.012480 -3.465377 0.690151 58.036221 10.408387 7.593966 0.354118 80.317410 -0.042391 -8.037747 -0.100693 -0.014408 0.187975 -0.310643 0.000000 0.000000 0.000000 0.000000 0.000000 0.000000 0.000000 
2.269017 16.305272 0.022610 63.099098 84.203038 114.739143 5.977670 0.066735 6.757751 1.159687 0.105354 -1.142409 -2.746813 0.034949 -0.028053 6.526608 -8.243162 -5.763980 -1.117731 -0.069628 -0.214611 0.000000 0.000000 0.000000 5.023113 9.279751 2.009227 -74.250600 21.260495 26.614270 -0.379057 -75.649453 0.016837 -4.113908 3.734380 -0.130892 0.081021 0.158495 0.000000 0.000000 0.000000 0.000000 0.000000 0.000000 0.000000 3.686920 -3.424117 0.687319 57.612467 10.680116 7.580791 0.334219 80.859322 -0.044124 -8.254487 -0.273398 -0.002003 0.193099 -0.310606 0.000000 0.000000 0.000000 0.000000 0.000000 0.000000 0.000000 
2.405431 16.333157 0.034950 61.052586 84.163767 112.566708 5.636718 0.134219 6.759959 1.091800 0.176786 -1.148569 -2.685445 0.109446 -0.035591 6.418949 -8.274385 -5.747201 -1.077005 -0.066960 -0.206669 0.000000 0.000000 0.000000 5.100817 9.354520 1.982293 -74.323164 21.366610 26.741324 -0.358955 -76.330693 0.016963 -4.102489 3.637896 -0.126998 0.082929 0.161012 0.000000 0.000000 0.000000 0.000000 0.000000 0.000000 0.000000 3.356557 -3.395400 0.680744 57.216021 10.942329 7.589129 0.313307 81.418156 -0.045877 -8.470340 -0.438220 0.010403 0.198213 -0.310687 0.000000 0.000000 0.000000 0.000000 0.000000 0.000000 0.000000 
2.543884 16.358843 0.046545 59.015427 84.135201 110.358964 5.307406 0.196407 6.755982 1.026199 0.243120 -1.156980 -2.629436 0.178773 -0.040423 6.311719 -8.319104 -5.739052 -1.036134 -0.064220 -0.199983 0.000000 0.000000 0.000000 5.189119 9.443166 1.957042 -74.380261 21.500502 26.854558 -0.339653 -76.984695 0.016859 -4.037099 3.573485 -0.122598 0.083707 0.162807 0.000000 0.000000 0.000000 0.000000 0.000000 0.000000 0.000000 3.021150 -3.381697 0.670444 56.849996 11.197588 7.626575 0.291467 81.993764 -0.047594 -8.677594 -0.593865 0.022709 0.203225 -0.310888 0.000000 0.000000 0.000000 0.000000 0.000000 0.000000 0.000000 
2.684490 16.382228 0.057425 57.044941 84.116696 108.175460 4.991168 0.251832 6.744374 0.963278 0.302941 -1.168114 -2.578881 0.241501 -0.042915 6.207271 -8.378112 -5.739415 -0.995112 -0.061410 -0.194506 0.000000 0.000000 0.000000 5.289940 9.541065 1.933391 -74.422773 21.669800 26.949892 -0.321202 -77.613773 0.016553 -3.925411 3.534721 -0.117898 0.083480 0.163950 0.000000 0.000000 0.000000 0.000000 0.000000 0.000000 0.000000 2.683462 -3.384269 0.657004 56.512725 11.446242 7.697511 0.268679 82.588411 -0.049230 -8.868343 -0.740122 0.034717 0.208043 -0.311199 0.000000 0.000000 0.000000 0.000000 0.000000 0.000000 0.000000 
2.827348 16.403152 0.067625 55.176689 84.109320 106.054865 4.688796 0.299626 6.723339 0.903440 0.355393 -1.182255 -2.533202 0.296761 -0.042613 6.106944 -8.454400 -5.749856 -0.953232 -0.058449 -0.190699 0.000000 0.000000 0.000000 5.405181 9.649683 1.911607 -74.449584 21.876365 27.029772 -0.303654 -78.221422 0.016090 -3.779736 3.518133 -0.112995 0.082438 0.164470 0.000000 0.000000 0.000000 0.000000 0.000000 0.000000 0.000000 2.342600 -3.405864 0.640956 56.205184 11.691439 7.808209 0.245021 83.200654 -0.050732 -9.034588 -0.876089 0.046326 0.212565 -0.311620 0.000000 0.000000 0.000000 0.000000 0.000000 0.000000 0.000000 
2.972555 16.421601 0.077181 53.424462 84.111460 104.012769 4.399207 0.339519 6.694424 0.846413 0.400274 -1.199188 -2.492230 0.344342 -0.040450 6.012718 -8.547525 -5.770446 -0.910546 -0.055332 -0.188675 0.000000 0.000000 0.000000 5.534927 9.764244 1.891912 -74.461528 22.125506 27.092008 -0.287011 -78.810427 0.015521 -3.613227 3.515431 -0.107990 0.080831 0.164479 0.000000 0.000000 0.000000 0.000000 0.000000 0.000000 0.000000 2.001542 -3.445604 0.623329 55.923976 11.932536 7.960025 0.220393 83.832722 -0.052055 -9.169121 -1.001271 0.057336 0.216697 -0.312157 0.000000 0.000000 0.000000 0.000000 0.000000 0.000000 0.000000 
3.120182 16.437564 0.086081 51.768551 84.122652 102.031147 4.120925 0.372133 6.659294 0.791947 0.438246 -1.218509 -2.455347 0.384901 -0.036875 5.925103 -8.658100 -5.802350 -0.866577 -0.051994 -0.188874 0.000000 0.000000 0.000000 5.678222 9.884804 1.874732 -74.457600 22.418298 27.138736 -0.271236 -79.385104 0.014904 -3.441102 3.520994 -0.103085 0.078938 0.164052 0.000000 0.000000 0.000000 0.000000 0.000000 0.000000 0.000000 1.659567 -3.502905 0.605055 55.668316 12.169831 8.154827 0.194743 84.484132 -0.053153 -9.264555 -1.115272 0.067247 0.220322 -0.312817 0.000000 0.000000 0.000000 0.000000 0.000000 0.000000 0.000000 
3.270247 16.451199 0.094250 50.170379 84.140540 100.070012 3.852197 0.398926 6.623567 0.739516 0.470887 -1.239254 -2.422435 0.420018 -0.033972 5.844210 -8.782999 -5.844724 -0.821566 -0.048452 -0.191230 0.000000 0.000000 0.000000 5.832723 10.003692 1.860302 -74.440011 22.760712 27.166320 -0.256251 -79.948221 0.014296 -3.277258 3.525753 -0.098381 0.077065 0.163321 0.000000 0.000000 0.000000 0.000000 0.000000 0.000000 0.000000 1.318257 -3.573160 0.587413 55.434062 12.398765 8.388334 0.167843 85.157781 -0.053988 -9.314997 -1.217712 0.076158 0.223335 -0.313619 0.000000 0.000000 0.000000 0.000000 0.000000 0.000000 0.000000 
3.422797 16.462529 0.101582 48.546946 84.164699 98.046911 3.592610 0.422206 6.591756 0.689086 0.500566 -1.260317 -2.392966 0.452063 -0.032473 5.768606 -8.920784 -5.898104 -0.775128 -0.044654 -0.196089 0.000000 0.000000 0.000000 5.995302 10.122927 1.849056 -74.408062 23.151094 27.179435 -0.241960 -80.502712 0.013747 -3.134536 3.526757 -0.094177 0.075471 0.162333 0.000000 0.000000 0.000000 0.000000 0.000000 0.000000 0.000000 0.975089 -3.653068 0.570973 55.221644 12.618297 8.659097 0.139583 85.852504 -0.054528 -9.315951 -1.308109 0.083670 0.225629 -0.314583 0.000000 0.000000 0.000000 0.000000 0.000000 0.000000 0.000000 
3.577832 16.471747 0.107974 46.801489 84.193253 95.862560 3.342238 0.444829 6.570794 0.640594 0.530245 -1.280356 -2.366822 0.484006 -0.034382 5.696333 -9.066917 -5.961206 -0.727333 -0.040607 -0.203295 0.000000 0.000000 0.000000 6.162578 10.238351 1.841147 -74.363825 23.592692 27.177998 -0.228212 -81.051292 0.013296 -3.022501 3.520265 -0.090676 0.074392 0.161148 0.000000 0.000000 0.000000 0.000000 0.000000 0.000000 0.000000 0.628320 -3.736085 0.556386 55.030207 12.823225 8.961597 0.109755 86.569200 -0.054754 -9.264809 -1.386283 0.089583 0.227110 -0.315731 0.000000 0.000000 0.000000 0.000000 0.000000 0.000000 0.000000 
3.735460 16.478716 0.113273 44.795048 84.227734 93.380770 3.104539 0.470069 6.562080 0.594978 0.563118 -1.298499 -2.343551 0.519016 -0.038389 5.624782 -9.222441 -6.035731 -0.677497 -0.036220 -0.213474 0.000000 0.000000 0.000000 6.330919 10.363520 1.836863 -74.302856 24.077333 27.176137 -0.214889 -81.596343 0.012974 -2.949023 3.512766 -0.088377 0.073959 0.159652 0.000000 0.000000 0.000000 0.000000 0.000000 0.000000 0.000000 0.273212 -3.821691 0.543080 54.861782 13.017288 9.297855 0.078367 87.303949 -0.054655 -9.161320 -1.452720 0.093996 0.227730 -0.317050 0.000000 0.000000 0.000000 0.000000 0.000000 0.000000 0.000000 
